<?xml version="1.0" encoding="UTF-8"?>
<!DOCTYPE svg PUBLIC "-//W3C//DTD SVG 1.1//EN" "http://www.w3.org/Graphics/SVG/1.1/DTD/svg11.dtd">
<!-- Creator: CorelDRAW 2021 (64 Bit) -->
<svg xmlns="http://www.w3.org/2000/svg" xml:space="preserve" width="100%" height="100%" version="1.1" style="shape-rendering:geometricPrecision; text-rendering:geometricPrecision; image-rendering:optimizeQuality; fill-rule:evenodd; clip-rule:evenodd"
viewBox="0 0 1676.64 426.88"
 xmlns:xlink="http://www.w3.org/1999/xlink"
 xmlns:xodm="http://www.corel.com/coreldraw/odm/2003">
 <defs>
  <style type="text/css">
   <![CDATA[
    .str0 {stroke:#007FC2;stroke-width:7.62;stroke-miterlimit:10}
    .fil0 {fill:#007FC2}
    .fil1 {fill:#3E4095}
    .fil2 {fill:#EEBB00}
    .fil3 {fill:#4B4B4D;fill-rule:nonzero}
    .fil4 {fill:#007FC2;fill-rule:nonzero}
   ]]>
  </style>
 </defs>
 <g id="Camada_x0020_1">
  <metadata id="CorelCorpID_0Corel-Layer"/>
  <g id="_2921999751552">
   <path class="fil0" d="M386.81 405.03l0 -16.99 41.57 0 0 45.54c-16.63,-5.51 -31.09,-14.16 -41.57,-28.55z"/>
   <path class="fil1" d="M747.05 373.29c-45.93,31.58 -199.84,-36.14 -270.16,50.2 101.7,-71.55 205.99,4.11 270.16,-50.2z"/>
   <path class="fil1" d="M736.4 401.8c-77.18,27.36 -181.39,-55 -256.18,17.78 104.69,-55.31 190.57,25.84 256.18,-17.78z"/>
   <polygon class="fil2" points="-5.82,20.7 60.42,20.7 60.42,86.95 -5.82,86.95 "/>
   <polygon class="fil2" points="82.5,97.99 148.75,97.99 148.75,164.23 82.5,164.23 "/>
   <polygon class="fil2" points="82.5,205.1 148.75,205.1 148.75,271.35 82.5,271.35 "/>
   <polygon class="fil2" points="180.03,98.08 246.28,98.08 246.28,164.32 180.03,164.32 "/>
   <polygon class="fil0" points="180.03,205.19 246.28,205.19 246.28,271.44 180.03,271.44 "/>
   <polygon class="fil0" points="187.25,298.94 248.72,298.94 248.72,360.41 187.25,360.41 "/>
   <polygon class="fil0" points="187.2,7.1 248.67,7.1 248.67,68.57 187.2,68.57 "/>
   <polygon class="fil0" points="280.42,98.06 346.67,98.06 346.67,164.31 280.42,164.31 "/>
   <polygon class="fil2" points="280.42,205.18 346.67,205.18 346.67,271.42 280.42,271.42 "/>
   <polygon class="fil0" points="286.06,298.53 347.53,298.53 347.53,360 286.06,360 "/>
   <polygon class="fil0" points="286.01,6.69 347.48,6.69 347.48,68.16 286.01,68.16 "/>
   <polygon class="fil0" points="383.03,97.98 427.83,97.98 427.83,164.22 383.03,164.22 "/>
   <polygon class="fil0" points="383.03,205.09 427.83,205.09 427.83,271.34 383.03,271.34 "/>
   <polygon class="fil0" points="386.64,298.45 428.21,298.45 428.21,359.92 386.64,359.92 "/>
   <path class="fil0 str0" d="M428.16 51.1l0 16.99 -41.57 0 0 -45.54c16.63,5.51 31.08,14.16 41.57,28.55z"/>
   <path class="fil0" d="M761.51 7.21c-60.11,60.52 -270.5,-26.17 -314.66,71.15l0 352.11c89.68,-115.59 241.8,-34.71 313.12,-86.03l1.54 -337.23z"/>
   <path class="fil3" d="M813.36 107.58l0 -99.63 31.61 0c5.99,0 10.87,1.13 14.64,3.38 3.77,2.26 6.58,5.52 8.43,9.78 1.84,4.26 2.77,9.43 2.77,15.5 0,7.13 -1.21,12.71 -3.63,16.73 -2.42,4.02 -5.72,6.87 -9.91,8.55 -4.18,1.68 -8.98,2.52 -14.39,2.52l-9.22 0 0 43.17 -20.3 0zm20.3 -57.44l7.13 0c2.95,0 5.23,-0.47 6.83,-1.42 1.6,-0.94 2.68,-2.43 3.26,-4.48 0.57,-2.05 0.86,-4.68 0.86,-7.88 0,-3.03 -0.23,-5.57 -0.68,-7.62 -0.45,-2.05 -1.45,-3.65 -3.01,-4.8 -1.56,-1.15 -4.02,-1.72 -7.38,-1.72l-7.01 0 0 27.92zm75.4 58.8c-7.3,0 -13.08,-1.32 -17.34,-3.94 -4.27,-2.62 -7.32,-6.38 -9.17,-11.25 -1.84,-4.88 -2.76,-10.73 -2.76,-17.53l0 -37.15c0,-6.81 0.92,-12.63 2.76,-17.47 1.85,-4.84 4.9,-8.53 9.17,-11.07 4.26,-2.54 10.04,-3.81 17.34,-3.81 7.38,0 13.22,1.29 17.53,3.87 4.3,2.59 7.38,6.28 9.23,11.07 1.84,4.8 2.76,10.6 2.76,17.41l0 37.15c0,6.8 -0.92,12.65 -2.76,17.53 -1.85,4.87 -4.93,8.63 -9.23,11.25 -4.31,2.62 -10.15,3.94 -17.53,3.94zm0 -14.64c2.62,0 4.55,-0.6 5.78,-1.78 1.23,-1.19 2.05,-2.79 2.46,-4.8 0.41,-2.01 0.62,-4.16 0.62,-6.46l0 -47.11c0,-2.3 -0.21,-4.43 -0.62,-6.4 -0.41,-1.97 -1.23,-3.54 -2.46,-4.73 -1.23,-1.19 -3.16,-1.79 -5.78,-1.79 -2.46,0 -4.3,0.6 -5.53,1.79 -1.24,1.19 -2.05,2.76 -2.46,4.73 -0.41,1.97 -0.62,4.1 -0.62,6.4l0 47.11c0,2.3 0.18,4.45 0.55,6.46 0.37,2.01 1.17,3.61 2.4,4.8 1.23,1.18 3.12,1.78 5.66,1.78zm43.05 13.28l0 -99.63 25.84 0c6.72,0 12.48,0.76 17.28,2.27 4.8,1.52 8.49,4.21 11.07,8.06 2.58,3.85 3.87,9.19 3.87,15.99 0,4.1 -0.35,7.73 -1.04,10.89 -0.7,3.15 -1.93,5.9 -3.69,8.24 -1.76,2.34 -4.25,4.2 -7.44,5.6l13.77 48.58 -20.79 0 -11.44 -45.14 -7.13 0 0 45.14 -20.3 0zm20.3 -57.19l5.9 0c3.28,0 5.87,-0.54 7.75,-1.6 1.89,-1.07 3.22,-2.69 4,-4.86 0.78,-2.18 1.17,-4.86 1.17,-8.06 0,-4.59 -0.84,-8.1 -2.52,-10.52 -1.68,-2.42 -4.82,-3.63 -9.41,-3.63l-6.89 0 0 28.67zm59.41 57.19l-0.12 -84.5 -15.38 -0.13 0 -15 50.93 0 0 15.13 -15.25 -0.13 0.12 84.63 -20.3 0zm34.08 0l19.31 -99.63 22.51 0 19.19 99.63 -18.82 0 -3.57 -21.89 -15.74 0 -3.82 21.89 -19.06 0zm24.72 -34.32l11.93 0 -6.02 -40.22 -5.91 40.22zm46.37 34.32l0 -99.63 20.18 0 0.12 85.86 23.37 0 0 13.77 -43.67 0z"/>
   <path class="fil4" d="M812.44 329.79l0 -195.26 49.42 0c8.51,0 16.39,0.73 23.62,2.17 7.23,1.45 13.62,4.02 19.16,7.72 5.55,3.69 9.81,8.79 12.78,15.3 2.97,6.51 4.46,14.99 4.46,25.43 0,7.88 -1.13,14.59 -3.38,20.13 -2.25,5.55 -5.46,9.93 -9.64,13.14 -4.18,3.21 -9.32,5.38 -15.43,6.51 7.56,1.12 13.9,3.7 19.05,7.71 5.14,4.02 9,9.32 11.57,15.91 2.57,6.59 3.86,14.55 3.86,23.87 0,9.8 -1.25,18.32 -3.74,25.55 -2.49,7.23 -6.15,13.18 -10.97,17.84 -4.82,4.66 -10.77,8.15 -17.84,10.48 -7.07,2.33 -15.26,3.5 -24.59,3.5l-58.33 0zm39.77 -27.96l11.09 0c9.97,0 16.84,-2.49 20.61,-7.48 3.78,-4.98 5.67,-12.45 5.67,-22.41 0,-7.72 -0.89,-13.87 -2.65,-18.45 -1.77,-4.58 -4.63,-7.95 -8.56,-10.12 -3.94,-2.17 -9.2,-3.25 -15.79,-3.25l-10.37 0 0 61.71zm0 -88.47l9.89 0c6.91,0 12.13,-1.01 15.66,-3.02 3.54,-2 5.99,-5.06 7.36,-9.16 1.36,-4.09 2.05,-9.12 2.05,-15.06 0,-5.95 -1.01,-10.73 -3.02,-14.34 -2.01,-3.62 -5.06,-6.23 -9.16,-7.84 -4.1,-1.61 -9.28,-2.41 -15.55,-2.41l-7.23 0 0 51.83zm99.08 116.43l0 -195.26 39.53 0 0 195.26 -39.53 0zm119.32 2.89c-13.18,0 -23.62,-2.77 -31.34,-8.31 -7.71,-5.55 -13.21,-13.42 -16.51,-23.63 -3.29,-10.2 -4.94,-22.05 -4.94,-35.55l0 -65.33c0,-13.98 1.69,-26.04 5.06,-36.16 3.38,-10.12 9.28,-17.92 17.72,-23.38 8.44,-5.47 19.89,-8.2 34.35,-8.2 13.98,0 25.03,2.33 33.15,6.99 8.11,4.66 13.94,11.25 17.47,19.77 3.54,8.52 5.31,18.64 5.31,30.37l0 11.33 -38.81 0 0 -13.74c0,-5.14 -0.33,-9.68 -0.97,-13.62 -0.64,-3.93 -2.13,-7.03 -4.46,-9.28 -2.33,-2.25 -6.07,-3.37 -11.21,-3.37 -5.3,0 -9.16,1.36 -11.57,4.09 -2.41,2.74 -3.94,6.23 -4.58,10.49 -0.64,4.26 -0.96,8.8 -0.96,13.62l0 86.54c0,5.46 0.48,10.37 1.44,14.7 0.97,4.34 2.78,7.72 5.43,10.13 2.65,2.41 6.47,3.62 11.45,3.62 4.98,0 8.84,-1.29 11.57,-3.86 2.73,-2.57 4.62,-6.07 5.66,-10.49 1.05,-4.42 1.57,-9.44 1.57,-15.06l0 -20.74 -19.04 0 0 -24.1 54.96 0 0 100.28 -26.04 0 -2.41 -17.6c-2.57,5.95 -6.42,10.85 -11.57,14.71 -5.14,3.85 -12.05,5.78 -20.73,5.78zm142.95 -0.24c-14.79,0 -26.28,-2.53 -34.47,-7.59 -8.2,-5.06 -13.94,-12.38 -17.24,-21.94 -3.29,-9.56 -4.94,-21.17 -4.94,-34.83l0 -133.55 39.29 0 0 139.09c0,4.82 0.36,9.56 1.09,14.22 0.72,4.67 2.33,8.44 4.82,11.34 2.49,2.89 6.31,4.33 11.45,4.33 5.3,0 9.2,-1.44 11.69,-4.33 2.49,-2.9 4.06,-6.67 4.7,-11.34 0.64,-4.66 0.97,-9.4 0.97,-14.22l0 -139.09 39.29 0 0 133.55c0,13.66 -1.65,25.27 -4.94,34.83 -3.3,9.56 -9.04,16.88 -17.24,21.94 -8.2,5.06 -19.69,7.59 -34.47,7.59zm73.04 -2.65l37.85 -195.26 44.11 0 37.6 195.26 -36.88 0 -6.99 -42.91 -30.85 0 -7.48 42.91 -37.36 0zm48.45 -67.26l23.39 0 -11.82 -78.82 -11.57 78.82zm145.12 69.91c-14.46,0 -25.91,-2.73 -34.35,-8.2 -8.44,-5.46 -14.34,-13.05 -17.72,-22.77 -3.37,-9.73 -5.06,-21.02 -5.06,-33.87l0 -70.15c0,-13.5 1.69,-25.11 5.06,-34.83 3.38,-9.73 9.28,-17.24 17.72,-22.54 8.44,-5.31 19.89,-7.96 34.35,-7.96 13.98,0 24.95,2.33 32.9,6.99 7.96,4.66 13.58,11.25 16.88,19.77 3.29,8.52 4.94,18.4 4.94,29.65l0 16.39 -38.57 0 0 -18.32c0,-4.5 -0.24,-8.72 -0.72,-12.65 -0.48,-3.94 -1.81,-7.16 -3.98,-9.65 -2.17,-2.49 -5.91,-3.73 -11.21,-3.73 -5.3,0 -9.16,1.28 -11.57,3.85 -2.41,2.58 -3.94,5.91 -4.58,10.01 -0.64,4.1 -0.96,8.64 -0.96,13.62l0 88.71c0,5.46 0.44,10.24 1.32,14.34 0.89,4.1 2.57,7.23 5.06,9.4 2.49,2.17 6.07,3.26 10.73,3.26 5.14,0 8.8,-1.25 10.97,-3.74 2.17,-2.49 3.53,-5.83 4.1,-10.01 0.56,-4.17 0.84,-8.59 0.84,-13.25l0 -19.05 38.57 0 0 16.15c0,11.41 -1.61,21.5 -4.82,30.26 -3.22,8.76 -8.76,15.67 -16.63,20.73 -7.88,5.06 -18.97,7.59 -33.27,7.59zm2.41 61.95c-3.05,0 -6.11,-0.24 -9.16,-0.72 -3.05,-0.48 -6.03,-1.21 -8.92,-2.17l0 -15.91c1.93,0.48 4.06,0.92 6.39,1.33 2.33,0.4 4.7,0.6 7.11,0.6 4.18,0 7.71,-0.68 10.61,-2.05 2.89,-1.37 4.34,-3.58 4.34,-6.63 0,-3.05 -1.09,-5.46 -3.26,-7.23 -2.17,-1.77 -4.9,-3.05 -8.19,-3.86 -3.3,-0.8 -6.79,-1.36 -10.49,-1.69l0 -26.27 13.98 0 0 15.43c9.64,0 17.36,2.01 23.14,6.02 5.79,4.02 8.68,10.05 8.68,18.08 0,5.95 -1.57,10.77 -4.7,14.47 -3.13,3.69 -7.31,6.38 -12.54,8.07 -5.22,1.69 -10.88,2.53 -16.99,2.53zm131.62 -61.95c-14.79,0 -26.28,-2.53 -34.47,-7.59 -8.2,-5.06 -13.94,-12.38 -17.24,-21.94 -3.29,-9.56 -4.94,-21.17 -4.94,-34.83l0 -133.55 39.29 0 0 139.09c0,4.82 0.36,9.56 1.09,14.22 0.72,4.67 2.33,8.44 4.82,11.34 2.49,2.89 6.31,4.33 11.45,4.33 5.3,0 9.2,-1.44 11.69,-4.33 2.49,-2.9 4.06,-6.67 4.7,-11.34 0.64,-4.66 0.96,-9.4 0.96,-14.22l0 -139.09 39.3 0 0 133.55c0,13.66 -1.65,25.27 -4.94,34.83 -3.3,9.56 -9.04,16.88 -17.24,21.94 -8.2,5.06 -19.69,7.59 -34.47,7.59z"/>
  </g>
 </g>
</svg>
